HIERARCHY
ROOT Hips
{
	OFFSET -0.179506 -22.333345 2.821913
	CHANNELS 6 Xposition Yposition Zposition Zrotation Yrotation Xrotation 
	JOINT LeftUpLeg
	{
		OFFSET 6.951974 -9.140623 -0.681533
		CHANNELS 3 Zrotation Yrotation Xrotation
		JOINT LeftLeg
		{
			OFFSET 3.427654 -37.519855 -0.449580
			CHANNELS 3 Zrotation Yrotation Xrotation
			JOINT LeftFoot
			{
				OFFSET -1.359570 -39.796059 -4.369333
				CHANNELS 3 Zrotation Yrotation Xrotation
				JOINT LeftToe
				{
					OFFSET 2.635814 -5.579078 11.928840
					CHANNELS 3 Zrotation Yrotation Xrotation
					End Site
					{
						OFFSET 0.000000 0.000000 0.000000
					}
				}
			}
		}
	}
	JOINT RightUpLeg
	{
		OFFSET -6.767048 -9.052170 -0.431982
		CHANNELS 3 Zrotation Yrotation Xrotation
		JOINT RightLeg
		{
			OFFSET -3.829005 -38.256897 -0.885003
			CHANNELS 3 Zrotation Yrotation Xrotation
			JOINT RightFoot
			{
				OFFSET 1.577377 -39.841461 -4.231180
				CHANNELS 3 Zrotation Yrotation Xrotation
				JOINT RightToe
				{
					OFFSET -2.537174 -4.814398 12.334795
					CHANNELS 3 Zrotation Yrotation Xrotation
					End Site
					{
						OFFSET 0.000000 0.000000 0.000000
					}
				}
			}
		}
	}
	JOINT Spine
	{
		OFFSET -0.253288 10.896323 -2.669631
		CHANNELS 3 Zrotation Yrotation Xrotation
		JOINT Spine1
		{
			OFFSET 0.548704 13.518043 0.109247
			CHANNELS 3 Zrotation Yrotation Xrotation
			JOINT Spine2
			{
				OFFSET 0.145701 5.292222 2.542457
				CHANNELS 3 Zrotation Yrotation Xrotation
				JOINT Neck
				{
					OFFSET -0.277840 21.387037 -4.285703
					CHANNELS 3 Zrotation Yrotation Xrotation
					JOINT Head
					{
						OFFSET 0.515184 6.496960 5.134897
						CHANNELS 3 Zrotation Yrotation Xrotation
						End Site
						{
							OFFSET 0.000000 0.000000 0.000000
						}
					}
				}
				JOINT LeftShoulder
				{
					OFFSET 7.884473 12.174932 -3.408961
					CHANNELS 3 Zrotation Yrotation Xrotation
					JOINT LeftArm
					{
						OFFSET 9.097692 3.046888 -0.886815
						CHANNELS 3 Zrotation Yrotation Xrotation
						JOINT LeftForeArm
						{
							OFFSET 25.961220 -1.277207 -2.745643
							CHANNELS 3 Zrotation Yrotation Xrotation
							JOINT LeftHand
							{
								OFFSET 24.923361 0.898606 -0.117091
								CHANNELS 3 Zrotation Yrotation Xrotation
								End Site
								{
									OFFSET 0.000000 0.000000 0.000000
								}
							}
						}
					}
				}
				JOINT RightShoulder
				{
					OFFSET -8.175920 11.883285 -3.861528
					CHANNELS 3 Zrotation Yrotation Xrotation
					JOINT RightArm
					{
						OFFSET -9.601238 3.255117 -0.914307
						CHANNELS 3 Zrotation Yrotation Xrotation
						JOINT RightForeArm
						{
							OFFSET -25.374195 -1.332924 -2.140099
							CHANNELS 3 Zrotation Yrotation Xrotation
							JOINT RightHand
							{
								OFFSET -25.529810 0.777228 -0.555919
								CHANNELS 3 Zrotation Yrotation Xrotation
								End Site
								{
									OFFSET 0.000000 0.000000 0.000000
								}
							}
						}
					}
				}
			}
		}
	}
}
MOTION
Frames: 7
Frame Time: 0.033333
349.226379 -338.170044 80.750481 -135.680093 2.541023 101.889872 1.457860 2.450013 -25.136569 -5.952123 16.806518 42.959091 7.725361 26.128607 -39.384340 nan nan nan -3.522122 -1.499458 -40.223649 4.375204 -17.553648 68.976996 2.953718 -3.491022 -2.858772 nan nan nan 1.479175 -1.570720 21.084941 6.656718 -0.777462 7.065376 2.187014 -1.507945 -2.071767 -5.173021 13.799747 -10.007076 -4.901578 2.746612 -19.863380 -21.661431 1.864374 2.760447 -65.540250 2.270166 17.968858 18.909193 -60.114609 -2.674972 7.865893 -23.539675 -13.588681 25.444248 -1.105050 2.361240 61.944227 -15.907937 9.086762 -16.814402 57.085878 -7.204492 -13.682982 15.809787 -29.443875 
347.605469 -336.172607 80.883232 -136.710435 2.535711 101.657197 1.656956 1.952333 -28.861097 -5.813212 17.907337 44.413615 8.050659 25.587625 -37.622098 nan nan nan -3.241104 -1.764695 -37.675439 4.382714 -17.080401 68.076816 3.029025 -3.674595 -2.107407 nan nan nan 1.549537 -0.355438 21.816385 6.232009 -0.573740 6.331736 2.199416 -1.099522 -1.921709 -5.426881 13.718207 -10.070400 -4.890654 2.695517 -20.157792 -22.059092 1.699450 2.744272 -65.204914 3.638667 18.122248 15.344226 -57.491738 -0.350138 12.071210 -23.765603 -16.287114 25.575816 -0.458046 2.542143 61.919812 -16.137353 9.354017 -14.281415 56.297697 -6.050623 -17.688356 15.566359 -31.000312 
346.069794 -334.297424 80.857498 -138.119582 2.498366 101.931984 2.402546 1.538811 -33.344502 -5.446932 19.002098 46.371061 8.569854 25.218474 -35.694083 nan nan nan -2.937628 -2.039146 -35.899562 4.407673 -16.239190 67.117900 2.866046 -4.158696 -1.952411 nan nan nan 1.605948 0.810752 22.448980 5.589368 -0.253167 5.605071 1.975940 -0.366743 -2.126900 -5.363892 12.984310 -11.371541 -5.212398 3.239368 -19.050939 -21.898730 2.140536 2.653491 -64.610709 5.847532 17.770058 13.841778 -56.601988 2.555496 10.379671 -21.183159 -14.896359 25.174509 0.533768 2.723289 58.961707 -12.524697 9.713105 -14.186523 55.684081 -5.508814 -17.152128 14.233227 -27.777382 
344.387054 -332.391571 80.917824 -139.512761 2.486165 101.823668 3.012371 1.163686 -37.282538 -5.166574 20.175377 48.795715 8.970428 24.756057 -34.518047 nan nan nan -2.844476 -2.397492 -33.502151 4.457968 -15.379214 65.898386 2.742921 -4.484881 -1.466322 nan nan nan 1.764904 2.063185 22.881920 4.919442 -0.032119 5.444651 1.782146 0.207425 -2.366340 -5.204342 12.328875 -11.803398 -5.354627 3.762136 -18.649585 -22.024680 2.258191 2.691421 -63.831677 7.970799 17.313239 12.800412 -56.453587 3.544144 5.539441 -19.689930 -14.589793 24.498095 1.504899 2.970127 56.065894 -10.139375 9.631375 -13.620102 55.303557 -5.210901 -13.349593 13.496379 -25.783973 
342.683167 -330.955627 80.971893 -140.988646 0.420986 103.760725 6.015670 -5.698703 -41.574044 -8.603542 15.958937 94.617175 7.714421 25.765208 -55.232551 nan nan nan -2.626310 1.699232 -30.737747 7.887869 -8.407516 60.707344 -1.113576 -5.498077 -13.572737 nan nan nan 0.100742 3.627104 20.675518 4.386721 -0.362788 6.507963 1.312113 0.687530 -3.581495 -6.465659 8.364724 -11.599830 -3.530207 6.880601 -19.181178 -23.652067 3.058804 4.390038 -60.905021 8.551634 16.333491 14.142664 -57.030376 5.271262 -1.936731 -17.969486 -11.667691 23.597515 3.899816 2.698642 46.814746 -1.169153 4.104109 -25.246222 55.150099 -20.395569 -10.681853 14.063659 -29.116308 
340.882690 -329.005920 80.991844 -142.834653 -0.162139 103.549060 6.040923 -4.994599 -45.152591 -8.042836 16.998678 94.088488 7.475670 24.773926 -53.201747 nan nan nan -1.844536 -0.431320 -22.721786 6.271060 -6.914352 49.780496 -3.036507 -10.385718 -24.359374 nan nan nan 0.063962 5.659584 20.608475 2.876044 -0.867124 7.219984 1.177231 0.990634 -3.885596 -5.410171 7.378221 -12.873402 -3.762295 7.929986 -18.197758 -22.832929 4.226195 4.514582 -60.477421 10.160497 14.669924 18.686973 -59.098421 6.519553 -14.542949 -11.172066 -3.043994 22.526147 5.369361 2.457815 45.404708 5.107189 4.635292 -30.360399 56.240958 -20.943750 -0.288364 11.966779 -22.231340 
339.004089 -326.763458 81.188980 -144.020013 -0.340376 103.511287 7.028840 -4.326290 -48.545704 -7.543121 18.032101 93.023197 7.537316 23.495019 -51.388699 nan nan nan -2.137439 -1.051416 -19.802406 5.926807 -5.542653 47.851140 -2.353045 -9.103688 -23.491472 nan nan nan 0.039732 6.634862 20.363304 1.887987 -0.753731 7.809732 0.752589 1.353565 -4.789152 -4.450344 8.111668 -11.841002 -3.980661 7.282340 -18.944673 -23.829242 5.307215 4.177961 -57.105625 12.423750 13.031595 21.620734 -63.033065 8.902247 -13.927368 -11.524903 9.125253 22.669188 4.601942 3.655135 41.842483 4.411315 2.953254 -29.694161 58.055741 -13.130538 0.248409 13.324804 -9.758001 
